<svg width="20" height="20" viewBox="0 0 20 20" fill="none" xmlns="http://www.w3.org/2000/svg">
<g id="Logo 1" clip-path="url(#clip0_2_102)">
<path id="[PLACEHOLDER LOGO]" fill-rule="evenodd" clip-rule="evenodd" d="M19.9897 9.53128C19.8987 7.5956 19.2473 5.72804 18.1147 4.15571C16.982 2.58338 15.4169 1.37401 13.6097 0.674664C11.8024 -0.0246825 9.83095 -0.183877 7.93493 0.216439C6.03891 0.616755 4.30004 1.55933 2.92978 2.92956C1.55951 4.29979 0.616876 6.03862 0.216502 7.93463C-0.183872 9.83064 -0.0247373 11.8021 0.674554 13.6094C1.37385 15.4166 2.58317 16.9818 4.15547 18.1145C5.72776 19.2472 7.5953 19.8987 9.53098 19.9897C10.9207 20.0509 12.308 19.8223 13.6046 19.3183C14.9012 18.8144 16.0787 18.0462 17.0624 17.0626C18.046 16.079 18.8143 14.9014 19.3182 13.6048C19.8222 12.3083 20.0509 10.921 19.9897 9.53128ZM4.01796 8.24557C3.9447 8.196 3.88982 8.12367 3.86181 8.03977C3.83381 7.95587 3.83424 7.86507 3.86304 7.78144C4.26226 6.67526 4.95326 5.69766 5.86285 4.95224C6.77245 4.20682 7.86674 3.72133 9.02979 3.54721C10.1928 3.37309 11.3813 3.51683 12.4694 3.9632C13.5574 4.40956 14.5044 5.14194 15.21 6.08271C15.6862 6.71763 15.0408 7.37223 14.1376 8.05097C13.2742 8.70049 12.4161 9.22906 12.4161 9.22906C12.1597 9.36209 11.8716 9.42183 11.5835 9.40173C11.2954 9.38162 11.0184 9.28244 10.783 9.11509L9.40463 8.13541C9.1692 7.96828 8.89227 7.86925 8.60425 7.8492C8.31623 7.82915 8.02824 7.88885 7.77193 8.02176L6.27035 8.80049C6.014 8.9332 5.72606 8.99275 5.4381 8.97259C5.15015 8.95243 4.87331 8.85334 4.63796 8.6862L4.0205 8.24779L4.01796 8.24557ZM16.1383 12.2195C15.739 13.3257 15.0479 14.3033 14.1383 15.0488C13.2287 15.7942 12.1344 16.2797 10.9713 16.4538C9.80818 16.628 8.61965 16.4843 7.53158 16.038C6.44351 15.5916 5.49643 14.8593 4.79066 13.9186C4.31447 13.2837 4.96019 12.6287 5.86304 11.9503C6.72654 11.3002 7.58495 10.7716 7.58495 10.7716C7.84132 10.6387 8.12936 10.5791 8.41741 10.5993C8.70546 10.6196 8.98235 10.7188 9.21765 10.8862L10.5964 11.8656C10.8318 12.0327 11.1087 12.1318 11.3967 12.1519C11.6847 12.1721 11.9727 12.1126 12.2291 11.9799L13.731 11.2018C13.9873 11.069 14.2752 11.0093 14.5632 11.0294C14.8511 11.0496 15.128 11.1486 15.3634 11.3157L15.9802 11.7541C15.9812 11.7549 15.9822 11.7555 15.9834 11.756C16.0566 11.8057 16.1115 11.8781 16.1395 11.962C16.1675 12.046 16.1671 12.1368 16.1383 12.2205V12.2195Z" fill="#55C2D8"/>
</g>
<defs>
<clipPath id="clip0_2_102">
<rect width="20" height="20" fill="white"/>
</clipPath>
</defs>
</svg>
